<svg xmlns="http://www.w3.org/2000/svg" viewBox="0 0 512 512">
<defs>
<linearGradient id="b" x1="0" x2="1"><stop stop-color="#0B47D1"/><stop offset="1" stop-color="#1565FF"/></linearGradient>
<linearGradient id="r" x1="0" x2="1"><stop stop-color="#FF2D2D"/><stop offset="1" stop-color="#D8162A"/></linearGradient>
</defs>
<rect width="512" height="512" rx="116" fill="#0D0D0F"/>
<circle cx="256" cy="236" r="175" fill="#090A0D" stroke="#FFFFFF" stroke-width="17"/>
<path d="M111 213a152 152 0 0 1 111-112" fill="none" stroke="url(#b)" stroke-width="30" stroke-linecap="round"/>
<path d="M290 101a152 152 0 0 1 111 112" fill="none" stroke="url(#r)" stroke-width="30" stroke-linecap="round"/>
<text x="126" y="299" font-family="Arial Black,Arial" font-size="180" font-weight="900" fill="url(#b)">2</text>
<text x="287" y="299" font-family="Arial Black,Arial" font-size="180" font-weight="900" fill="url(#r)">G</text>
<g transform="translate(207 148)">
<rect x="18" y="18" width="94" height="134" rx="12" fill="#111820" stroke="#FFFFFF" stroke-width="10"/>
<rect x="2" y="2" width="94" height="134" rx="12" fill="#0D0D0F" stroke="#FFFFFF" stroke-width="10"/>
<path d="M49 35l10 27 27 10-27 10-10 27-10-27-27-10 27-10z" fill="#FFFFFF"/>
</g>
<text x="256" y="455" text-anchor="middle" font-family="Arial Black,Arial" font-size="48" font-weight="900" fill="#FFFFFF" letter-spacing="3">VAULT</text>
</svg>